<mxfile host="65bd71144e">
    <diagram id="mEVgwmYNHJ8np5K0elgh" name="Page-1">
        <mxGraphModel dx="2431" dy="1142" grid="1" gridSize="10" guides="1" tooltips="1" connect="1" arrows="1" fold="1" page="1" pageScale="1" pageWidth="827" pageHeight="1169" math="0" shadow="0">
            <root>
                <mxCell id="0"/>
                <mxCell id="1" parent="0"/>
                <mxCell id="U48pzsQ8TpMybfFlmH0K-11" value="deployment" style="rounded=0;whiteSpace=wrap;html=1;verticalAlign=top;" parent="1" vertex="1">
                    <mxGeometry x="270" y="200" width="240" height="300" as="geometry"/>
                </mxCell>
                <mxCell id="U48pzsQ8TpMybfFlmH0K-20" style="edgeStyle=orthogonalEdgeStyle;rounded=0;orthogonalLoop=1;jettySize=auto;html=1;entryX=0;entryY=0.5;entryDx=0;entryDy=0;entryPerimeter=0;" parent="1" source="U48pzsQ8TpMybfFlmH0K-1" target="U48pzsQ8TpMybfFlmH0K-19" edge="1">
                    <mxGeometry relative="1" as="geometry"/>
                </mxCell>
                <mxCell id="U48pzsQ8TpMybfFlmH0K-1" value="spring-native-counter-backend&lt;br&gt;pod" style="rounded=0;whiteSpace=wrap;html=1;" parent="1" vertex="1">
                    <mxGeometry x="354" y="240" width="120" height="60" as="geometry"/>
                </mxCell>
                <mxCell id="U48pzsQ8TpMybfFlmH0K-5" style="edgeStyle=orthogonalEdgeStyle;rounded=0;orthogonalLoop=1;jettySize=auto;html=1;entryX=0;entryY=0.5;entryDx=0;entryDy=0;" parent="1" source="U48pzsQ8TpMybfFlmH0K-2" target="U48pzsQ8TpMybfFlmH0K-1" edge="1">
                    <mxGeometry relative="1" as="geometry"/>
                </mxCell>
                <mxCell id="U48pzsQ8TpMybfFlmH0K-6" style="edgeStyle=orthogonalEdgeStyle;rounded=0;orthogonalLoop=1;jettySize=auto;html=1;entryX=0;entryY=0.5;entryDx=0;entryDy=0;" parent="1" source="U48pzsQ8TpMybfFlmH0K-2" target="U48pzsQ8TpMybfFlmH0K-3" edge="1">
                    <mxGeometry relative="1" as="geometry"/>
                </mxCell>
                <mxCell id="U48pzsQ8TpMybfFlmH0K-7" style="edgeStyle=orthogonalEdgeStyle;rounded=0;orthogonalLoop=1;jettySize=auto;html=1;entryX=0;entryY=0.5;entryDx=0;entryDy=0;" parent="1" source="U48pzsQ8TpMybfFlmH0K-2" target="U48pzsQ8TpMybfFlmH0K-4" edge="1">
                    <mxGeometry relative="1" as="geometry"/>
                </mxCell>
                <mxCell id="U48pzsQ8TpMybfFlmH0K-2" value="spring-native-counter-backend&lt;br&gt;service" style="rounded=0;whiteSpace=wrap;html=1;" parent="1" vertex="1">
                    <mxGeometry x="130" y="330" width="120" height="60" as="geometry"/>
                </mxCell>
                <mxCell id="U48pzsQ8TpMybfFlmH0K-21" style="edgeStyle=orthogonalEdgeStyle;rounded=0;orthogonalLoop=1;jettySize=auto;html=1;entryX=0;entryY=0.5;entryDx=0;entryDy=0;entryPerimeter=0;" parent="1" source="U48pzsQ8TpMybfFlmH0K-3" target="U48pzsQ8TpMybfFlmH0K-19" edge="1">
                    <mxGeometry relative="1" as="geometry"/>
                </mxCell>
                <mxCell id="U48pzsQ8TpMybfFlmH0K-3" value="spring-native-counter-backend&lt;br&gt;pod" style="rounded=0;whiteSpace=wrap;html=1;" parent="1" vertex="1">
                    <mxGeometry x="354" y="330" width="120" height="60" as="geometry"/>
                </mxCell>
                <mxCell id="U48pzsQ8TpMybfFlmH0K-22" style="edgeStyle=orthogonalEdgeStyle;rounded=0;orthogonalLoop=1;jettySize=auto;html=1;entryX=0;entryY=0.5;entryDx=0;entryDy=0;entryPerimeter=0;" parent="1" source="U48pzsQ8TpMybfFlmH0K-4" target="U48pzsQ8TpMybfFlmH0K-19" edge="1">
                    <mxGeometry relative="1" as="geometry"/>
                </mxCell>
                <mxCell id="U48pzsQ8TpMybfFlmH0K-4" value="spring-native-counter-backend&lt;br&gt;pod" style="rounded=0;whiteSpace=wrap;html=1;" parent="1" vertex="1">
                    <mxGeometry x="354" y="420" width="120" height="60" as="geometry"/>
                </mxCell>
                <mxCell id="U48pzsQ8TpMybfFlmH0K-9" style="edgeStyle=orthogonalEdgeStyle;rounded=0;orthogonalLoop=1;jettySize=auto;html=1;entryX=0;entryY=0.5;entryDx=0;entryDy=0;" parent="1" source="U48pzsQ8TpMybfFlmH0K-8" target="U48pzsQ8TpMybfFlmH0K-2" edge="1">
                    <mxGeometry relative="1" as="geometry"/>
                </mxCell>
                <mxCell id="U48pzsQ8TpMybfFlmH0K-8" value="spring-native-counter-application" style="rounded=0;whiteSpace=wrap;html=1;" parent="1" vertex="1">
                    <mxGeometry x="-110" y="330" width="120" height="60" as="geometry"/>
                </mxCell>
                <mxCell id="U48pzsQ8TpMybfFlmH0K-12" style="edgeStyle=orthogonalEdgeStyle;rounded=0;orthogonalLoop=1;jettySize=auto;html=1;" parent="1" source="U48pzsQ8TpMybfFlmH0K-10" target="U48pzsQ8TpMybfFlmH0K-11" edge="1">
                    <mxGeometry relative="1" as="geometry"/>
                </mxCell>
                <mxCell id="U48pzsQ8TpMybfFlmH0K-16" style="edgeStyle=orthogonalEdgeStyle;rounded=0;orthogonalLoop=1;jettySize=auto;html=1;" parent="1" source="U48pzsQ8TpMybfFlmH0K-10" target="U48pzsQ8TpMybfFlmH0K-13" edge="1">
                    <mxGeometry relative="1" as="geometry"/>
                </mxCell>
                <mxCell id="U48pzsQ8TpMybfFlmH0K-17" value="read requests per second" style="edgeLabel;html=1;align=center;verticalAlign=middle;resizable=0;points=[];" parent="U48pzsQ8TpMybfFlmH0K-16" vertex="1" connectable="0">
                    <mxGeometry x="0.0836" y="-2" relative="1" as="geometry">
                        <mxPoint as="offset"/>
                    </mxGeometry>
                </mxCell>
                <mxCell id="U48pzsQ8TpMybfFlmH0K-10" value="spring-native-counter-backend&lt;br&gt;horizontal-pod-autoscaler" style="rounded=0;whiteSpace=wrap;html=1;" parent="1" vertex="1">
                    <mxGeometry x="330" y="570" width="120" height="60" as="geometry"/>
                </mxCell>
                <mxCell id="U48pzsQ8TpMybfFlmH0K-14" style="edgeStyle=orthogonalEdgeStyle;rounded=0;orthogonalLoop=1;jettySize=auto;html=1;" parent="1" source="U48pzsQ8TpMybfFlmH0K-13" target="U48pzsQ8TpMybfFlmH0K-1" edge="1">
                    <mxGeometry relative="1" as="geometry">
                        <mxPoint x="444" y="250" as="targetPoint"/>
                        <Array as="points">
                            <mxPoint x="450" y="140"/>
                        </Array>
                    </mxGeometry>
                </mxCell>
                <mxCell id="U48pzsQ8TpMybfFlmH0K-15" value="scrape requests-per-second" style="edgeLabel;html=1;align=center;verticalAlign=middle;resizable=0;points=[];" parent="U48pzsQ8TpMybfFlmH0K-14" vertex="1" connectable="0">
                    <mxGeometry x="-0.146" y="-1" relative="1" as="geometry">
                        <mxPoint as="offset"/>
                    </mxGeometry>
                </mxCell>
                <mxCell id="U48pzsQ8TpMybfFlmH0K-13" value="prometheus" style="rounded=0;whiteSpace=wrap;html=1;" parent="1" vertex="1">
                    <mxGeometry x="630" y="110" width="120" height="60" as="geometry"/>
                </mxCell>
                <mxCell id="U48pzsQ8TpMybfFlmH0K-19" value="redis" style="shape=cylinder3;whiteSpace=wrap;html=1;boundedLbl=1;backgroundOutline=1;size=15;" parent="1" vertex="1">
                    <mxGeometry x="580" y="320" width="60" height="80" as="geometry"/>
                </mxCell>
                <mxCell id="U48pzsQ8TpMybfFlmH0K-23" value="This is possible due to the usage of linkerd" style="text;html=1;strokeColor=none;fillColor=none;align=center;verticalAlign=middle;whiteSpace=wrap;rounded=0;" parent="1" vertex="1">
                    <mxGeometry x="330" y="150" width="100" height="30" as="geometry"/>
                </mxCell>
            </root>
        </mxGraphModel>
    </diagram>
</mxfile>